<svg width="48" height="48" viewBox="0 0 48 48" fill="none" xmlns="http://www.w3.org/2000/svg">
  <path d="M15.0401 42.96C8.5001 39.88 3.8201 33.52 3.1001 26H0.100098C1.1201 38.32 11.4201 48 24.0001 48L25.3201 47.94L17.7001 40.32L15.0401 42.96ZM16.8201 29.92C16.4401 29.92 16.0801 29.86 15.7801 29.76C15.4601 29.64 15.2001 29.5 14.9801 29.28C14.7601 29.08 14.5801 28.84 14.4601 28.54C14.3401 28.26 14.2801 27.94 14.2801 27.6H11.6801C11.6801 28.32 11.8201 28.96 12.1001 29.5C12.3801 30.04 12.7601 30.5 13.2201 30.88C13.7001 31.24 14.2401 31.52 14.8601 31.7C15.4601 31.9 16.1001 32 16.7801 32C17.5201 32 18.2201 31.9 18.8401 31.7C19.4801 31.5 20.0401 31.2 20.5001 30.82C20.9601 30.44 21.3401 29.96 21.6001 29.38C21.8601 28.8 22.0001 28.16 22.0001 27.44C22.0001 27.06 21.9601 26.68 21.8601 26.32C21.7601 25.96 21.6201 25.62 21.4001 25.3C21.2001 24.98 20.9201 24.7 20.6001 24.44C20.2601 24.18 19.8601 23.98 19.3801 23.82C19.7801 23.64 20.1201 23.42 20.4201 23.16C20.7201 22.9 20.9601 22.62 21.1601 22.32C21.3601 22.02 21.5001 21.72 21.6001 21.4C21.7001 21.08 21.7401 20.76 21.7401 20.44C21.7401 19.72 21.6201 19.08 21.3801 18.52C21.1401 17.96 20.8001 17.5 20.3601 17.14C19.9601 16.76 19.4201 16.48 18.8201 16.28C18.2001 16.1 17.5201 16 16.7801 16C16.0601 16 15.4001 16.1 14.7801 16.32C14.1801 16.54 13.6401 16.84 13.2001 17.22C12.7801 17.6 12.4401 18.04 12.1801 18.56C11.9401 19.08 11.8201 19.64 11.8201 20.26H14.4201C14.4201 19.92 14.4801 19.62 14.6001 19.36C14.7201 19.1 14.8801 18.86 15.1001 18.68C15.3201 18.5 15.5601 18.34 15.8601 18.24C16.1601 18.14 16.4601 18.08 16.8201 18.08C17.6201 18.08 18.2201 18.28 18.6001 18.7C18.9801 19.1 19.1801 19.68 19.1801 20.42C19.1801 20.78 19.1201 21.1 19.0201 21.4C18.9201 21.7 18.7401 21.94 18.5201 22.14C18.3001 22.34 18.0201 22.5 17.7001 22.62C17.3801 22.74 16.9801 22.8 16.5401 22.8H15.0001V24.86H16.5401C16.9801 24.86 17.3801 24.9 17.7401 25C18.1001 25.1 18.4001 25.26 18.6401 25.46C18.8801 25.68 19.0801 25.94 19.2201 26.26C19.3601 26.58 19.4201 26.96 19.4201 27.4C19.4201 28.22 19.1801 28.84 18.7201 29.26C18.2601 29.72 17.6201 29.92 16.8201 29.92ZM33.9201 18.08C33.2801 17.42 32.5201 16.9 31.6401 16.54C30.7801 16.18 29.8001 16 28.7201 16H24.0001V32H28.6001C29.7001 32 30.7201 31.82 31.6201 31.46C32.5201 31.1 33.3001 30.6 33.9401 29.94C34.5801 29.28 35.0801 28.48 35.4201 27.56C35.7601 26.62 35.9401 25.58 35.9401 24.42V23.62C35.9401 22.46 35.7601 21.42 35.4201 20.48C35.0601 19.54 34.5601 18.74 33.9201 18.08ZM33.1401 24.4C33.1401 25.24 33.0401 25.98 32.8601 26.66C32.6601 27.32 32.3801 27.9 32.0001 28.36C31.6201 28.82 31.1401 29.18 30.5801 29.42C30.0001 29.66 29.3401 29.78 28.6001 29.78H26.7801V18.24H28.7201C30.1601 18.24 31.2601 18.7 32.0001 19.62C32.7601 20.54 33.1401 21.86 33.1401 23.6V24.4ZM24.0001 0L22.6801 0.06L30.3001 7.68L32.9601 5.02C39.5001 8.12 44.1801 14.46 44.8801 21.98H47.8801C46.8801 9.68 36.5801 0 24.0001 0Z" fill="white"/>
</svg>
