<svg width="32" height="28" viewBox="0 0 32 28" fill="none" xmlns="http://www.w3.org/2000/svg">
  <path fill-rule="evenodd" clip-rule="evenodd" d="M21.8825 25.6178C26.6528 23.9223 30.3799 20.0493 30.3799 13.9996C30.3799 7.95024 26.6528 4.07701 21.8823 2.38161C20.0145 1.71768 17.9858 1.38577 15.9556 1.38577C13.9255 1.38577 11.8968 1.71768 10.0289 2.38161C5.2586 4.07701 1.53148 7.95024 1.53148 13.9996C1.53148 20.0493 5.25861 23.9223 10.0291 25.6178C11.8969 26.2818 13.9256 26.6139 15.9558 26.6139C17.9859 26.6139 20.0147 26.2818 21.8825 25.6178ZM31.9116 14C31.9116 32.6667 0 32.6667 0 14C0 -4.66668 31.9116 -4.66668 31.9116 14ZM31.0772 13.9996C31.0772 20.3938 27.1459 24.4848 22.1139 26.2734C20.17 26.9644 18.0619 27.3099 15.9558 27.3099C13.8496 27.3099 11.7415 26.9644 9.79759 26.2734C4.76551 24.4848 0.834267 20.3938 0.834267 13.9996C0.834267 7.60582 4.76551 3.5147 9.79749 1.72627C11.7414 1.03508 13.8495 0.689704 15.9556 0.689704C18.0618 0.689704 20.1699 1.03508 22.1138 1.72627C27.1459 3.5147 31.0772 7.60582 31.0772 13.9996Z" fill="url(#paint0_linear)"/>
  <path fill-rule="evenodd" clip-rule="evenodd" d="M31.0771 13.9996C31.0771 20.3938 27.1459 24.4848 22.1139 26.2734C20.1699 26.9644 18.0619 27.3099 15.9558 27.3099C13.8496 27.3099 11.7415 26.9644 9.79755 26.2734C4.76547 24.4848 0.834229 20.3938 0.834229 13.9996C0.834229 7.60581 4.76547 3.51469 9.79745 1.72626C11.7414 1.03508 13.8495 0.689697 15.9556 0.689697C18.0618 0.689697 20.1698 1.03508 22.1138 1.72626C27.1459 3.51469 31.0771 7.60581 31.0771 13.9996ZM21.8825 25.6178C26.6528 23.9223 30.3799 20.0493 30.3799 13.9996C30.3799 7.95024 26.6528 4.077 21.8823 2.3816C20.0145 1.71767 17.9858 1.38577 15.9556 1.38577C13.9255 1.38577 11.8967 1.71767 10.0289 2.3816C5.25857 4.077 1.53144 7.95024 1.53144 13.9996C1.53144 20.0493 5.25857 23.9223 10.0291 25.6178C11.8968 26.2818 13.9256 26.6139 15.9558 26.6139C17.9859 26.6139 20.0146 26.2818 21.8825 25.6178Z" fill="#FEFEFE"/>
  <path fill-rule="evenodd" clip-rule="evenodd" d="M7.73646 21.5105H13.884C17.2826 21.5105 19.5193 20.1375 19.5193 17.3905C19.5193 15.3299 18.4435 14.3217 16.7017 13.6562C17.7769 13.0553 18.6808 12.1115 18.6808 10.4157C18.6808 7.5986 16.2225 6.48853 13.712 6.48853H7.73646C7.43152 6.48853 7.18439 6.73536 7.18439 7.0399V7.04192V20.9592V20.9593C7.18439 21.2639 7.43152 21.5105 7.73646 21.5105ZM10.4113 12.562V9.7164V9.71629C10.4114 9.53363 10.5595 9.38576 10.7425 9.38576H13.2172C14.6151 9.38576 15.3896 9.9435 15.3896 10.9311C15.3896 12.0897 14.4644 12.562 13.0023 12.562H10.4113ZM10.4113 18.2826V15.3087H13.7764C15.4753 15.3087 16.2281 15.9313 16.2281 16.9395C16.2281 18.0986 15.3462 18.6134 13.884 18.6134H10.7425C10.5595 18.6134 10.4113 18.4655 10.4113 18.2828V18.2826ZM21.7458 21.5105H24.1751C24.48 21.5105 24.7271 21.2639 24.7271 20.9593V20.9592V7.0399V7.0398C24.7269 6.73525 24.48 6.48853 24.1751 6.48853H21.7458C21.5629 6.48853 21.4148 6.6365 21.4147 6.81927V21.1799C21.4147 21.3626 21.5629 21.5105 21.7458 21.5105Z" fill="white"/>
  <defs>
    <linearGradient id="paint0_linear" x1="19.6722" y1="17.9789" x2="3.20985" y2="0.295522" gradientUnits="userSpaceOnUse">
      <stop stop-color="#074C89"/>
      <stop offset="1" stop-color="#2F83C5"/>
    </linearGradient>
  </defs>
</svg>
